# xmcd
#
# Track frame offsets:
#	150
#	19165
#	30723
#	49671
#	69803
#	95894
#	121175
#	140264
#	159985
#	175796
#	194946
#	221084
#	245736
#
# Disc length: 3434 seconds
#
# Revision: 1
# Processed by: cddbd v1.5.1PL2 Copyright (c) Steve Scherf et al.
# Submitted via: audiograbber 1.80.04
#
DISCID=ba0d680d
DTITLE=Layce Baker - Layce Baker featuring the Black Diamond Band
DYEAR=2004
DGENRE=Blues
TTITLE0=Side Tracked by Freddy King 
TTITLE1=Express Yourself by Charles Wright 
TTITLE2=Don't Pet My Dog by Layce Baker Jr 
TTITLE3=Billie Jean Got the Blues by Layce Baker Jr 
TTITLE4=My Woman Dont Know How to Treat Me Right by Layce Baker Jr
TTITLE5=Pride and Joy/Sweet Home Chicago by Stevie Ray Vaughn/Robert Johnson 
TTITLE6=Ain't No Sunshine by Bill Withers
TTITLE7=Hoochie Coochie Coochie Man by Muddy Waters
TTITLE8=Mad Dog by Beverly Stovall/Layce Baker Jr 
TTITLE9=Mississippi Sidewalk by Layce Baker Jr 
TTITLE10=Can't Sleep at Night by Layce Baker Jr 
TTITLE11=Why I Sing The Blues by B.B. King
TTITLE12=Lucille By Little Richard 
EXTD=
EXTT0=
EXTT1=
EXTT2=
EXTT3=
EXTT4=
EXTT5=
EXTT6=
EXTT7=
EXTT8=
EXTT9=
EXTT10=
EXTT11=
EXTT12=
PLAYORDER=
